<svg width="31" height="36" viewBox="0 0 31 36" fill="none" xmlns="http://www.w3.org/2000/svg">
<path d="M6.92738 15.3665C6.69255 14.8161 6.45039 14.2584 6.21556 13.7153L5.30561 11.6019C4.41767 9.62054 5.12949 7.39703 6.99342 6.3183L7.08882 6.26693C7.67589 5.95872 8.34367 5.79728 9.00412 5.79728C10.4278 5.79728 11.7413 6.52377 12.5192 7.74927C13.1062 8.65188 13.6493 9.53982 14.2217 10.4791L14.6033 11.1029L14.6106 11.1102C15.1169 10.0829 15.4105 8.93074 15.4105 7.70524C15.4105 3.44901 11.9615 0 7.70524 0C3.44901 0 0 3.44901 0 7.70524C0 11.6973 3.03807 14.9775 6.92738 15.3665Z" fill="#F9C1B1"/>
<path d="M30.5419 29.7569C30.8134 30.366 30.5933 31.0705 30.0723 31.4521L23.776 35.5689C22.7339 36.2293 21.347 36.1339 20.4224 35.2607C17.6118 32.5895 13.9133 31.4227 13.9133 31.4227C12.974 31.1292 12.1447 30.7476 11.3522 30.0358C10.8238 29.5441 10.0093 29.0231 9.47358 28.5755C8.04995 27.4087 6.51624 26.374 4.85044 25.6181C4.10927 25.2952 3.96984 24.7962 4.33675 24.0624C4.52021 23.6955 5.00454 23.2625 5.40815 23.1084C6.3181 22.7709 7.22072 22.9176 8.06462 23.1525C8.58564 23.2552 10.7578 24.6495 11.7705 25.1485C12.6437 25.5814 12.8712 24.7816 12.8786 23.8129C12.8786 23.3286 12.7391 22.8809 12.5924 22.426C10.9779 18.478 9.26811 14.5666 7.55828 10.6113C7.16935 9.74536 7.4482 8.90879 8.22607 8.45381C8.99659 8.0502 9.93589 8.29971 10.4349 9.07757C11.1394 10.171 11.7998 11.257 12.5043 12.3945C13.1207 13.4292 13.7885 14.4199 14.4049 15.4546L15.1901 16.7021C15.1901 16.7021 20.7673 15.2124 26.6893 17.2965C27.0122 17.4286 27.2837 17.6487 27.3864 18.001C27.9221 19.3145 29.3237 22.947 29.4485 26.352C29.5953 27.2399 29.8521 27.9957 29.9915 28.4948L30.5419 29.7569Z" fill="#F48463"/>
</svg>
