<svg width="23" height="24" viewBox="0 0 23 24" fill="none" xmlns="http://www.w3.org/2000/svg">
<path d="M20.5357 0.625H2.46429C1.81072 0.625 1.18392 0.881807 0.721773 1.33893C0.259629 1.79605 0 2.41603 0 3.0625L0 20.9375C0 21.584 0.259629 22.204 0.721773 22.6611C1.18392 23.1182 1.81072 23.375 2.46429 23.375H20.5357C21.1893 23.375 21.8161 23.1182 22.2782 22.6611C22.7404 22.204 23 21.584 23 20.9375V3.0625C23 2.41603 22.7404 1.79605 22.2782 1.33893C21.8161 0.881807 21.1893 0.625 20.5357 0.625ZM19.6943 16.2336L18.9242 19.5344C18.8851 19.7022 18.7896 19.852 18.6534 19.9592C18.5172 20.0665 18.3482 20.1249 18.1741 20.125C9.95982 20.125 3.28571 13.5382 3.28571 5.39844C3.29183 5.22784 3.35313 5.06369 3.46062 4.93013C3.5681 4.79658 3.71608 4.70067 3.88279 4.65652L7.21984 3.8948C7.27677 3.8829 7.33469 3.87627 7.39286 3.875C7.54178 3.88243 7.68597 3.92916 7.81046 4.01034C7.93496 4.09151 8.03521 4.20416 8.10083 4.3366L9.641 7.89129C9.67873 7.98713 9.69973 8.08861 9.70312 8.19141C9.69059 8.4169 9.58922 8.62855 9.42076 8.78098L7.47551 10.3552C8.65417 12.8262 10.6648 14.8149 13.1629 15.9807L14.7544 14.0566C14.9085 13.89 15.1225 13.7897 15.3504 13.7773C15.4544 13.7807 15.557 13.8014 15.6539 13.8388L19.2476 15.3622C19.3816 15.427 19.4955 15.5262 19.5776 15.6493C19.6597 15.7725 19.7069 15.9152 19.7143 16.0625C19.7133 16.1201 19.7066 16.1774 19.6943 16.2336Z" fill="#127DBA"/>
</svg>
