<svg width="16" height="16" viewBox="0 0 16 16" fill="none" xmlns="http://www.w3.org/2000/svg">
<path d="M15.0711 0.928781C15.3055 1.1632 15.4372 1.48114 15.4372 1.81267C15.4372 2.14419 15.3055 2.46213 15.0711 2.69655L9.76777 7.99985L15.0711 13.3032C15.3055 13.5376 15.4372 13.8555 15.4372 14.187C15.4372 14.5186 15.3055 14.8365 15.0711 15.0709C14.8366 15.3053 14.5187 15.437 14.1872 15.437C13.8557 15.437 13.5377 15.3053 13.3033 15.0709L8 9.76762L2.6967 15.0709C2.46228 15.3053 2.14434 15.437 1.81282 15.437C1.4813 15.437 1.16335 15.3053 0.928934 15.0709C0.694513 14.8365 0.562816 14.5186 0.562816 14.187C0.562816 13.8555 0.694514 13.5376 0.928934 13.3031L6.23223 7.99985L0.928932 2.69655C0.694512 2.46213 0.562815 2.14418 0.562815 1.81266C0.562816 1.48114 0.694512 1.1632 0.928932 0.928779C1.16335 0.694359 1.4813 0.562663 1.81282 0.562663C2.14434 0.562664 2.46228 0.694359 2.6967 0.92878L8 6.23208L13.3033 0.928781C13.5377 0.69436 13.8557 0.562664 14.1872 0.562664C14.5187 0.562665 14.8366 0.69436 15.0711 0.928781Z" fill="#7D8295"/>
</svg>
