<svg width="59" height="59" viewBox="0 0 59 59" fill="none" xmlns="http://www.w3.org/2000/svg">
<path d="M46.7109 3.47058H24.2402L10.4121 15.4685V53.162C10.4121 53.991 11.1852 54.6618 12.1406 54.6618H46.7109C47.6663 54.6618 48.4395 53.991 48.4395 53.162V4.97032C48.4395 4.14137 47.6663 3.47058 46.7109 3.47058Z" fill="#227DF3"/>
<path d="M24.7402 2.97058V3.47058V15.5702C24.7402 16.8017 23.7433 17.7987 22.5117 17.7987H10.4121H9.91211V17.2987V15.5702C9.91211 14.9783 10.1472 14.4122 10.565 13.9946L24.7402 2.97058ZM24.7402 2.97058H24.2402H22.5117C21.9198 2.97058 21.3538 3.20571 20.9361 3.62348C20.9361 3.6235 20.9361 3.62352 20.936 3.62355L10.5651 13.9945L24.7402 2.97058ZM27.6973 20.371C24.8043 20.371 22.2489 22.0245 21.0341 24.5808C18.4797 25.7956 16.8262 28.3508 16.8262 31.2421C16.8262 35.3315 20.1527 38.6561 24.2402 38.6561H34.6113C38.6989 38.6561 42.0254 35.3315 42.0254 31.2421C42.0254 27.1526 38.6989 23.828 34.6113 23.828H33.9442C32.6046 21.7125 30.2588 20.371 27.6973 20.371ZM39.7969 44.5702H19.0547C17.8231 44.5702 16.8262 45.5672 16.8262 46.7987C16.8262 48.0303 17.8231 49.0272 19.0547 49.0272H39.7969C41.0284 49.0272 42.0254 48.0303 42.0254 46.7987C42.0254 45.5672 41.0284 44.5702 39.7969 44.5702Z" fill="#BFD9FC" stroke="white"/>
</svg>
