<svg width="54" height="54" viewBox="0 0 54 54" fill="none" xmlns="http://www.w3.org/2000/svg">
<path d="M44.4023 33.3281H31.7461C30.8717 33.3281 30.1641 32.6205 30.1641 31.7461V23.8359H23.8359V31.7461C23.8359 32.6205 23.1283 33.3281 22.2539 33.3281H9.59766C4.36335 33.3281 0 29.0702 0 23.8359C0 19.1145 3.56927 15.1873 8.08977 14.4627C8.8252 7.29717 14.8968 1.6875 22.2539 1.6875C25.7764 1.6875 29.1042 2.96979 31.7307 5.31816C32.7688 5.00755 33.8349 4.85156 34.9102 4.85156C40.5184 4.85156 45.1687 9.043 45.8886 14.4597C50.4184 15.1749 54 19.1068 54 23.8359C54 29.0702 49.6367 33.3281 44.4023 33.3281Z" fill="#227DF3"/>
<path d="M33.1881 36.7199V37.2199H33.6881H36.8522C37.262 37.2199 37.6361 37.451 37.8204 37.8185C38.0039 38.1845 37.9641 38.623 37.7187 38.9509L28.2273 51.6062C28.2272 51.6064 28.2271 51.6065 28.227 51.6066C28.0214 51.8798 27.6997 52.0402 27.36 52.0402C27.0203 52.0402 26.6986 51.8798 26.493 51.6066C26.4929 51.6065 26.4928 51.6064 26.4927 51.6062L17.0012 38.9509C16.7558 38.623 16.716 38.1845 16.8996 37.8185C17.0838 37.451 17.458 37.2199 17.8678 37.2199H21.0319H21.5319V36.7199V22.4816C21.5319 21.8833 22.0156 21.3996 22.6139 21.3996H32.1061C32.7044 21.3996 33.1881 21.8833 33.1881 22.4816V36.7199ZM32.1061 17.2355H22.6139C22.0156 17.2355 21.5319 16.7518 21.5319 16.1535C21.5319 15.5552 22.0156 15.0714 22.6139 15.0714H32.1061C32.7044 15.0714 33.1881 15.5552 33.1881 16.1535C33.1881 16.7518 32.7044 17.2355 32.1061 17.2355Z" fill="#BFD9FC" stroke="white"/>
</svg>
