<svg width="219" height="182" viewBox="0 0 219 182" fill="none" xmlns="http://www.w3.org/2000/svg">
<path d="M157.32 130.484H157.183C154.637 130.484 152.603 132.604 152.603 135.346V139.226C152.603 139.625 152.441 140.008 152.155 140.29C151.868 140.572 151.479 140.73 151.073 140.73C150.667 140.73 150.278 140.572 149.991 140.29C149.704 140.008 149.543 139.625 149.543 139.226V132.061C149.543 129.319 147.507 127.088 144.961 127.088C142.4 127.087 140.364 129.319 140.364 132.061V139.656C140.364 140.055 140.203 140.437 139.916 140.72C139.629 141.002 139.24 141.16 138.834 141.16C138.429 141.16 138.04 141.002 137.753 140.72C137.466 140.437 137.305 140.055 137.305 139.656V129.976C137.305 127.234 135.125 125.11 132.579 125.11H132.434C129.953 125.11 127.907 127.122 127.907 129.766V140.664C127.907 141.063 127.746 141.446 127.459 141.728C127.172 142.011 126.783 142.169 126.378 142.169C125.972 142.169 125.583 142.011 125.296 141.728C125.009 141.446 124.848 141.063 124.848 140.664V130.084C124.848 130.047 124.844 130.011 124.844 129.974C124.844 129.888 124.848 129.802 124.848 129.716V104.973C124.848 102.231 122.733 100 120.186 100C117.64 100 115.526 102.229 115.524 104.969L115.494 146.003C115.494 146.313 115.396 146.616 115.215 146.869C115.033 147.123 114.776 147.315 114.48 147.419C114.183 147.524 113.86 147.535 113.557 147.453C113.253 147.37 112.982 147.197 112.782 146.958L107.801 140.995C107.16 140.205 106.361 139.554 105.453 139.081C104.545 138.608 103.548 138.325 102.523 138.248C101.521 138.183 100.515 138.321 99.5695 138.655C98.6237 138.989 97.758 139.511 97.0263 140.188C97.0073 140.206 96.9878 140.224 96.9677 140.24L96.0586 140.985L113.289 173.549C115.997 178.666 121.117 181.857 126.649 181.857H146.613C155.05 181.857 161.922 174.565 161.931 165.616C161.935 160.868 161.94 157.315 161.944 154.441C161.954 146.72 161.958 143.886 161.938 135.386C161.931 132.652 159.86 130.484 157.32 130.484Z" fill="#3E8DF4"/>
<rect x="76" y="52" width="88" height="62" rx="7" fill="white" fill-opacity="0.5" stroke="white" stroke-width="2"/>
<rect x="180" y="122" width="18" height="18" rx="9" fill="white" fill-opacity="0.5" stroke="white" stroke-width="2"/>
<rect x="46.0006" y="32" width="18" height="18" rx="9" fill="white" fill-opacity="0.5" stroke="white" stroke-width="2"/>
<rect x="210" y="117" width="8" height="8" rx="4" fill="white" fill-opacity="0.5" stroke="white" stroke-width="2"/>
<rect x="32.0006" y="52" width="8" height="8" rx="4" fill="white" fill-opacity="0.5" stroke="white" stroke-width="2"/>
<rect x="1.00061" y="106" width="8" height="8" rx="4" fill="white" fill-opacity="0.5" stroke="white" stroke-width="2"/>
<rect x="190.001" y="1" width="8" height="8" rx="4" fill="white" fill-opacity="0.5" stroke="white" stroke-width="2"/>
<circle cx="98" cy="90" r="5" fill="#83DDEF"/>
<circle cx="120" cy="74" r="5" fill="#9B7CFA"/>
<circle cx="142" cy="90" r="5" fill="#F48463"/>
</svg>
