<svg width="49" height="49" viewBox="0 0 49 49" fill="none" xmlns="http://www.w3.org/2000/svg">
<g clip-path="url(#clip0)">
<path d="M29.8633 4.20442C25.7677 1.84138 20.539 3.24095 18.174 7.33449L3.49572 32.7402C-0.292169 39.2965 5.77781 47.2425 13.1212 45.2758C15.3291 44.6846 17.1744 43.2697 18.3173 41.2915L32.9954 15.8857C35.3547 11.8023 33.9496 6.56202 29.8633 4.20442Z" fill="#227DF3" fill-opacity="0.3"/>
<path d="M19.1722 34.8026C17.9482 30.2378 13.2608 27.5325 8.69173 28.7559C1.34568 30.723 0.0701768 40.6379 6.62794 44.4216C13.1705 48.1964 21.1511 42.1834 19.1722 34.8026Z" fill="#A0ED83"/>
<path d="M45.222 45.2878L44.7223 44.4217L45.2221 45.2878C49.7866 42.6542 51.3561 36.8022 48.7203 32.24L34.0421 6.83428C32.7666 4.62634 30.7027 3.044 28.2389 2.38422C20.0304 0.185869 13.258 9.06309 17.4888 16.386L32.167 41.7919C34.8072 46.3618 40.6468 47.9276 45.222 45.2878Z" fill="#227DF3" stroke="white" stroke-width="2"/>
<path d="M20.2162 34.8693L19.2503 35.1283L20.2162 34.8693C18.8491 29.7707 13.6132 26.7494 8.51119 28.1156C0.30085 30.3141 -1.12017 41.3862 6.20631 45.6134L6.20632 45.6134C13.5089 49.8267 22.4293 43.1234 20.2162 34.8693Z" fill="#227DF3" stroke="white" stroke-width="2"/>
</g>
<defs>
<clipPath id="clip0">
<rect width="49" height="49" fill="white"/>
</clipPath>
</defs>
</svg>
