<svg width="13" height="13" viewBox="0 0 13 13" fill="none" xmlns="http://www.w3.org/2000/svg">
<path d="M6.5 0.75C6.69062 0.75 6.87344 0.825725 7.00823 0.960517C7.14303 1.09531 7.21875 1.27813 7.21875 1.46875V5.78125L11.5312 5.78125C11.7219 5.78125 11.9047 5.85698 12.0395 5.99177C12.1743 6.12656 12.25 6.30938 12.25 6.5C12.25 6.69062 12.1743 6.87344 12.0395 7.00823C11.9047 7.14303 11.7219 7.21875 11.5312 7.21875L7.21875 7.21875L7.21875 11.5312C7.21875 11.7219 7.14303 11.9047 7.00823 12.0395C6.87344 12.1743 6.69062 12.25 6.5 12.25C6.30938 12.25 6.12656 12.1743 5.99177 12.0395C5.85698 11.9047 5.78125 11.7219 5.78125 11.5312L5.78125 7.21875H1.46875C1.27813 7.21875 1.09531 7.14303 0.960517 7.00823C0.825725 6.87344 0.75 6.69062 0.75 6.5C0.75 6.30938 0.825725 6.12656 0.960517 5.99177C1.09531 5.85698 1.27813 5.78125 1.46875 5.78125H5.78125V1.46875C5.78125 1.27813 5.85698 1.09531 5.99177 0.960517C6.12656 0.825725 6.30938 0.75 6.5 0.75Z" fill="#7D8295"/>
</svg>
