<svg width="32" height="41" viewBox="0 0 32 41" fill="none" xmlns="http://www.w3.org/2000/svg">
<path d="M10.3418 27.3991C4.63018 24.1015 2.67324 16.798 5.97084 11.0864C9.26845 5.37481 16.5719 3.41786 22.2835 6.71547L26.6019 9.20869C27.4115 9.67614 27.6889 10.7115 27.2215 11.5211L16.9726 29.2727C16.5051 30.0823 15.4698 30.3597 14.6602 29.8923L10.3418 27.3991Z" fill="#00D4FF"/>
<g style="mix-blend-mode:multiply" opacity="0.8">
<path d="M9.61133 33.5214C15.3229 36.819 22.6264 34.862 25.924 29.1504C29.2216 23.4388 27.2646 16.1354 21.553 12.8378L17.2346 10.3445C16.425 9.87708 15.3897 10.1545 14.9222 10.9641L4.67333 28.7157C4.20587 29.5254 4.48329 30.5607 5.29294 31.0281L9.61133 33.5214Z" fill="#9B7CFA"/>
</g>
</svg>
