<svg width="23" height="22" viewBox="0 0 23 22" fill="none" xmlns="http://www.w3.org/2000/svg">
<path d="M22.3002 10.9961C22.3002 8.13174 21.1623 5.38472 19.1369 3.35933C17.1116 1.33394 14.3645 0.196083 11.5002 0.196083C8.63586 0.196083 5.88883 1.33394 3.86344 3.35933C1.83805 5.38472 0.700195 8.13174 0.700195 10.9961C0.700195 13.8604 1.83805 16.6074 3.86344 18.6328C5.88883 20.6582 8.63586 21.7961 11.5002 21.7961C14.3645 21.7961 17.1116 20.6582 19.1369 18.6328C21.1623 16.6074 22.3002 13.8604 22.3002 10.9961ZM14.4796 12.3461L16.7031 14.5682C16.766 14.6309 16.8158 14.7054 16.8499 14.7874C16.8839 14.8694 16.9014 14.9573 16.9014 15.0461C16.9014 15.1349 16.8839 15.2228 16.8499 15.3048C16.8158 15.3868 16.766 15.4613 16.7031 15.524L14.4796 17.7461C14.4174 17.8106 14.3429 17.862 14.2605 17.8974C14.1782 17.9327 14.0896 17.9513 14 17.9521C13.9104 17.9529 13.8215 17.9358 13.7385 17.9019C13.6556 17.8679 13.5802 17.8178 13.5168 17.7544C13.4534 17.6911 13.4033 17.6157 13.3694 17.5328C13.3355 17.4498 13.3184 17.3609 13.3192 17.2713C13.3199 17.1817 13.3385 17.0931 13.3739 17.0107C13.4093 16.9284 13.4607 16.8539 13.5252 16.7916L14.5957 15.7211H6.7752C6.59617 15.7211 6.42449 15.65 6.2979 15.5234C6.17131 15.3968 6.10019 15.2251 6.10019 15.0461C6.10019 14.8671 6.17131 14.6954 6.2979 14.5688C6.42449 14.4422 6.59617 14.3711 6.7752 14.3711H14.5957L13.5252 13.3005C13.4607 13.2383 13.4093 13.1638 13.3739 13.0814C13.3385 12.9991 13.3199 12.9105 13.3192 12.8209C13.3184 12.7313 13.3355 12.6424 13.3694 12.5594C13.4033 12.4765 13.4534 12.4011 13.5168 12.3377C13.5802 12.2743 13.6556 12.2242 13.7385 12.1903C13.8215 12.1563 13.9104 12.1393 14 12.14C14.0896 12.1408 14.1782 12.1594 14.2605 12.1948C14.3429 12.2302 14.4174 12.2816 14.4796 12.3461ZM8.52075 4.24608C8.64805 4.12313 8.81856 4.05509 8.99554 4.05663C9.17252 4.05817 9.34182 4.12916 9.46697 4.2543C9.59212 4.37946 9.66311 4.54875 9.66465 4.72574C9.66619 4.90272 9.59815 5.07323 9.47519 5.20053L8.40464 6.27108L16.2252 6.27108C16.4042 6.27108 16.5759 6.3422 16.7025 6.46879C16.8291 6.59537 16.9002 6.76706 16.9002 6.94608C16.9002 7.1251 16.8291 7.29679 16.7025 7.42338C16.5759 7.54997 16.4042 7.62108 16.2252 7.62108L8.40464 7.62108L9.47519 8.69163C9.53966 8.7539 9.59109 8.82838 9.62646 8.91073C9.66184 8.99309 9.68046 9.08166 9.68124 9.17129C9.68202 9.26091 9.66494 9.3498 9.631 9.43275C9.59706 9.51571 9.54694 9.59107 9.48356 9.65445C9.42018 9.71783 9.34482 9.76795 9.26186 9.80189C9.17891 9.83583 9.09002 9.85291 9.0004 9.85213C8.91077 9.85135 8.8222 9.83273 8.73985 9.79735C8.65749 9.76198 8.58301 9.71055 8.52075 9.64608L6.29729 7.42398C6.17075 7.2974 6.09966 7.12574 6.09966 6.94676C6.09966 6.76777 6.17075 6.59611 6.29729 6.46953L8.52075 4.24608Z" fill="#FF7D7D"/>
</svg>
