<svg width="40" height="40" viewBox="0 0 40 40" fill="none" xmlns="http://www.w3.org/2000/svg">
<g clip-path="url(#clip0)">
<path d="M6.44434 19.9132C6.86564 18.9911 7.80558 18.3952 8.83904 18.3952H28.4668V15.8276C28.4668 14.7692 27.5938 13.908 26.5207 13.908H15.076C15.0592 13.908 15.0477 13.9036 15.0434 13.9004L12.9949 10.9711C12.6321 10.4515 12.0329 10.1412 11.3927 10.1412H3.94654C2.87304 10.1412 2 11.0025 2 12.0609V29.4429L6.44434 19.9132Z" fill="#9B7CFA"/>
<path d="M30.2627 4.01446L30.2619 4.01452L23.5013 4.61367C23.5012 4.61367 23.5012 4.61368 23.5011 4.61368C22.8093 4.67491 22.0547 4.92958 21.3903 5.25706C20.7241 5.58543 20.0603 6.03051 19.5786 6.54089L19.5724 6.54739L19.5664 6.554L13.5419 13.1701C12.2441 14.5546 12.2455 16.7717 13.5481 18.1532C13.5483 18.1534 13.5484 18.1535 13.5486 18.1537L20.7389 25.7922C20.7389 25.7922 20.739 25.7922 20.739 25.7922C22.075 27.2117 24.2668 27.2129 25.6017 25.7914L25.6069 25.7858L25.612 25.7802L31.6375 19.1653C32.1155 18.656 32.5276 17.959 32.8303 17.2647C33.135 16.5657 33.3665 15.7827 33.4219 15.0766L33.4219 15.0766L33.9846 7.89535C33.9846 7.89508 33.9846 7.8948 33.9846 7.89452C34.0727 6.79588 33.7336 5.77397 33.0447 5.04188C32.3512 4.30486 31.3544 3.91856 30.2627 4.01446ZM27.4517 12.457C26.7298 12.457 26.0434 11.8174 26.0434 10.8971C26.0434 9.97821 26.7295 9.3384 27.4517 9.3384C28.173 9.3384 28.8599 9.9785 28.8599 10.8971C28.8599 11.8168 28.1719 12.457 27.4517 12.457Z" fill="#CDBEFD" stroke="#FBFAFF" stroke-width="2"/>
<path d="M33.9206 20.9545L33.9199 20.9535C33.2577 19.8613 32.0863 19.2134 30.8071 19.2134H9.9634C8.54973 19.2134 7.25021 20.0272 6.66097 21.3119L1.14937 33.1306L1.00169 33.4473L1.08337 33.787C1.39894 35.0995 2.58948 36.0656 3.99597 36.0656H26.1721C27.5114 36.0656 28.7218 35.2912 29.3089 34.0882L29.309 34.0881L34.0742 24.32L34.0746 24.3192C34.5996 23.2405 34.5408 21.9802 33.9206 20.9545Z" fill="#9B7CFA" stroke="#FBFAFF" stroke-width="2"/>
</g>
<defs>
<clipPath id="clip0">
<rect width="40" height="40" fill="white"/>
</clipPath>
</defs>
</svg>
