<svg width="120" height="120" viewBox="0 0 120 120" fill="none" xmlns="http://www.w3.org/2000/svg">
<path d="M52.0755 106.415L13.5849 50.9434L5.66037 60L52.0755 106.415Z" fill="#FCFCFC"/>
<path d="M60 119.909C59.4007 119.909 58.8016 119.681 58.3441 119.224L0.687891 61.6588C0.2475 61.2191 0 60.6224 0 60.0001C0 59.3779 0.2475 58.7812 0.687891 58.3415L34.9936 24.0899C35.9098 23.1756 37.3938 23.1765 38.3081 24.0925C39.2227 25.0084 39.2215 26.4925 38.3055 27.407L5.66086 60.0001L61.6559 115.907C62.5718 116.821 62.5732 118.305 61.6584 119.221C61.2009 119.68 60.6005 119.909 60 119.909Z" fill="#202226"/>
<path d="M88.3019 56.533L58.8679 4.52832L43.0189 56.533L60 115.472L88.3019 56.533Z" fill="#FCFCFC"/>
<path d="M60 117.565L2.34375 37.5049L60 2.43469L48.1666 57.8482L60 117.565Z" fill="#697EC9"/>
<path d="M69.0566 13.5849L91.6981 57.7358L65.6604 109.811L114.34 60L69.0566 13.5849Z" fill="#FCFCFC"/>
<path d="M59.9993 119.909C59.5216 119.909 59.0418 119.764 58.63 119.467C57.6982 118.796 57.39 117.548 57.9023 116.52L87.1228 57.8888L57.9351 3.5438C57.3853 2.52005 57.6686 1.24786 58.601 0.554347C59.5333 -0.139168 60.8332 -0.044715 61.6558 0.7763L119.312 58.3416C119.752 58.7813 120 59.378 120 60.0003C120 60.6225 119.752 61.2193 119.312 61.6589L61.6558 119.224C61.2023 119.677 60.6025 119.909 59.9993 119.909ZM69.5721 15.3038L91.8264 56.7394C92.1864 57.4095 92.1986 58.2129 91.8595 58.8938L68.4979 105.769L114.339 60L69.5721 15.3038Z" fill="#202226"/>
</svg>
